<svg width="24" height="24" viewBox="0 0 24 24" fill="none" xmlns="http://www.w3.org/2000/svg">
<path d="M14.8255 16.5784C14.2637 16.5784 13.7481 16.4822 13.2787 16.2898C12.8092 16.0897 12.4129 15.8049 12.0897 15.4355L13.2556 14.2696C13.4018 14.4851 13.6134 14.6621 13.8905 14.8006C14.1752 14.9315 14.4754 14.9969 14.7909 14.9969C15.0756 14.9969 15.3219 14.9469 15.5297 14.8468C15.7375 14.7468 15.8991 14.6044 16.0145 14.4197C16.1376 14.235 16.1992 14.0157 16.1992 13.7617C16.1992 13.5078 16.1376 13.2923 16.0145 13.1153C15.8991 12.9306 15.7259 12.7882 15.4951 12.6882C15.2719 12.5881 15.0025 12.5381 14.687 12.5381C14.5408 12.5381 14.3869 12.5496 14.2253 12.5727C14.0713 12.5881 13.9405 12.6151 13.8328 12.6535L14.6293 11.6492C14.8448 11.5877 15.0487 11.5377 15.2411 11.4992C15.4412 11.453 15.6259 11.4299 15.7952 11.4299C16.2108 11.4299 16.584 11.53 16.9149 11.7301C17.2458 11.9224 17.5075 12.1995 17.6999 12.5612C17.9 12.9152 18 13.3385 18 13.831C18 14.3697 17.8653 14.8468 17.596 15.2624C17.3343 15.678 16.9649 16.0012 16.4878 16.2321C16.0184 16.4629 15.4643 16.5784 14.8255 16.5784ZM13.8328 12.6535V11.6492L15.8183 9.31744L17.8499 9.3059L15.7836 11.6608L13.8328 12.6535ZM12.5976 9.8369V8.30161H17.8499V9.3059L16.4301 9.8369H12.5976Z" fill="black"/>
<path d="M8.37734 16.5784C7.81555 16.5784 7.29994 16.4822 6.8305 16.2898C6.36106 16.0897 5.96473 15.8049 5.64151 15.4355L6.80741 14.2696C6.95363 14.4851 7.16526 14.6621 7.44231 14.8006C7.72705 14.9315 8.02719 14.9969 8.34271 14.9969C8.62745 14.9969 8.87372 14.9469 9.0815 14.8468C9.28929 14.7468 9.4509 14.6044 9.56633 14.4197C9.68946 14.235 9.75103 14.0157 9.75103 13.7617C9.75103 13.5078 9.68946 13.2923 9.56633 13.1153C9.4509 12.9306 9.27774 12.7882 9.04687 12.6882C8.82369 12.5881 8.55434 12.5381 8.23882 12.5381C8.0926 12.5381 7.93869 12.5496 7.77708 12.5727C7.62316 12.5881 7.49233 12.6151 7.38459 12.6535L8.1811 11.6492C8.39658 11.5877 8.60052 11.5377 8.79291 11.4992C8.993 11.453 9.1777 11.4299 9.347 11.4299C9.76257 11.4299 10.1358 11.53 10.4667 11.7301C10.7976 11.9224 11.0593 12.1995 11.2517 12.5612C11.4518 12.9152 11.5518 13.3385 11.5518 13.831C11.5518 14.3697 11.4172 14.8468 11.1478 15.2624C10.8862 15.678 10.5168 16.0012 10.0396 16.2321C9.57018 16.4629 9.01609 16.5784 8.37734 16.5784ZM7.38459 12.6535V11.6492L9.37009 9.31744L11.4018 9.3059L9.33546 11.6608L7.38459 12.6535ZM6.14943 9.8369V8.30161H11.4018V9.3059L9.9819 9.8369H6.14943Z" fill="black"/>
<path d="M12 22C17.5228 22 22 17.5228 22 12C22 6.47715 17.5228 2 12 2C6.47715 2 2 6.47715 2 12C2 17.5228 6.47715 22 12 22Z" stroke="black" stroke-width="2" stroke-linecap="round" stroke-linejoin="round"/>
</svg>
