<svg width="25" height="24" viewBox="0 0 25 24" fill="none" xmlns="http://www.w3.org/2000/svg">
<path d="M3.33325 12C3.33325 13.1819 3.56604 14.3522 4.01834 15.4442C4.47063 16.5361 5.13356 17.5282 5.96929 18.364C6.80502 19.1997 7.79717 19.8626 8.8891 20.3149C9.98103 20.7672 11.1514 21 12.3333 21M3.33325 12C3.33325 10.8181 3.56604 9.64778 4.01834 8.55585C4.47063 7.46392 5.13356 6.47177 5.96929 5.63604C6.80502 4.80031 7.79717 4.13738 8.8891 3.68508C9.98103 3.23279 11.1514 3 12.3333 3M3.33325 12H5.33325M12.3333 21C13.5151 21 14.6855 20.7672 15.7774 20.3149C16.8693 19.8626 17.8615 19.1997 18.6972 18.364C19.5329 17.5282 20.1959 16.5361 20.6482 15.4442C21.1005 14.3522 21.3333 13.1819 21.3333 12M12.3333 21V19M21.3333 12C21.3333 10.8181 21.1005 9.64778 20.6482 8.55585C20.1959 7.46392 19.5329 6.47177 18.6972 5.63604C17.8615 4.80031 16.8693 4.13738 15.7774 3.68508C14.6855 3.23279 13.5151 3 12.3333 3M21.3333 12H19.3333M12.3333 3V5M8.33325 16L10.3333 10L16.3333 8L14.3333 14L8.33325 16Z" stroke="white" stroke-width="1.5" stroke-linecap="round" stroke-linejoin="round"/>
</svg>
