<svg width="56" height="56" viewBox="0 0 56 56" fill="none" xmlns="http://www.w3.org/2000/svg">
<g clip-path="url(#clip0_3664_8091)">
<path d="M28 56C12.5608 56 0 43.4392 0 28C0 12.5608 12.5608 0 28 0C43.4392 0 56 12.5608 56 28C56 43.4392 43.4392 56 28 56ZM28 1.86667C13.5903 1.86667 1.86667 13.5903 1.86667 28C1.86667 42.4097 13.5903 54.1333 28 54.1333C42.4097 54.1333 54.1333 42.4097 54.1333 28C54.1333 13.5903 42.4097 1.86667 28 1.86667Z" fill="#25C685"/>
<path d="M31.1696 47.9788C29.9012 47.9788 28.7074 47.2153 28.2128 45.9777L27.1898 43.4204C27.1366 43.2888 27.0928 43.1516 27.0573 43.0116L25.2877 35.9323C25.2644 35.8389 25.2308 35.7493 25.1878 35.6635L24.2377 33.7641C23.9605 33.2088 23.3473 32.9307 22.7434 33.0763L21.84 33.3021C20.8814 33.5411 19.8501 33.3171 19.0801 32.7001L16.1261 30.3379C15.3673 29.7293 14.9324 28.824 14.9324 27.8533V26.8537C14.9324 26.1864 15.1377 25.548 15.525 25.0057L19.1006 20.0003C19.697 19.1649 20.6649 18.6675 21.6897 18.6675H23.6432C24.2218 18.6675 24.7884 18.8252 25.2812 19.122L28.6664 21.1529C28.9473 21.3228 29.2796 21.3807 29.6006 21.3153L31.625 20.9093C33.0932 20.6153 34.5846 21.4012 35.1736 22.7769L36.9684 26.9648C37.0766 27.2168 37.2652 27.4333 37.4994 27.5724L39.3381 28.6765C40.1249 29.1488 40.67 29.9384 40.8324 30.8409C40.9948 31.7453 40.7586 32.6749 40.1856 33.3917L38.5522 35.4339C38.3665 35.6663 38.2638 35.9584 38.2638 36.2552V39.2017C38.2638 40.0399 37.9241 40.8603 37.3314 41.452L36.3197 42.4637C36.2432 42.5403 36.1769 42.6252 36.1218 42.7167L33.8921 46.4332C33.502 47.0828 32.8906 47.5737 32.171 47.8136C31.8416 47.9265 31.5028 47.9788 31.1696 47.9788ZM23.0757 31.1685C24.2573 31.1685 25.3568 31.8265 25.9084 32.9297L26.8585 34.8291C26.9621 35.0363 27.0433 35.2556 27.0993 35.4805L28.8689 42.5599C28.8829 42.6168 28.9016 42.6719 28.923 42.726L29.9469 45.2861C30.2054 45.9301 30.9222 46.2633 31.584 46.0449C31.8808 45.9451 32.1337 45.7425 32.2961 45.4728L34.5249 41.7572C34.6584 41.536 34.8189 41.3297 35.0028 41.1459L36.0154 40.1323C36.2609 39.8877 36.4009 39.5489 36.4009 39.2027V36.2561C36.4009 35.5365 36.6482 34.8319 37.0981 34.2691L38.7324 32.2269C38.9732 31.9264 39.0674 31.5521 39.0002 31.1732C38.9321 30.7943 38.7128 30.476 38.3824 30.2781L36.5446 29.1749C35.9688 28.8305 35.5236 28.3209 35.2576 27.7012L33.4618 23.5124C33.2182 22.944 32.6022 22.6211 31.9956 22.7405L29.9702 23.1465C29.1918 23.3043 28.3892 23.1624 27.7088 22.7545L24.3217 20.7227C24.1173 20.5995 23.884 20.5351 23.645 20.5351H21.6916C21.2678 20.5351 20.8684 20.7413 20.622 21.0857L17.0464 26.0912C16.8858 26.3152 16.8009 26.5793 16.8009 26.8547V27.8543C16.8009 28.2556 16.981 28.6299 17.2946 28.8819L20.2477 31.2432C20.566 31.498 20.9934 31.5932 21.3892 31.4924L22.2917 31.2675C22.553 31.2003 22.8162 31.1685 23.0757 31.1685Z" fill="#25C685"/>
<path d="M42 46.6662C41.7536 46.6662 41.5165 46.5692 41.3401 46.3928L39.4734 44.5261C39.2532 44.3058 39.157 43.9894 39.2186 43.6833L40.152 39.0166C40.1884 38.8365 40.277 38.6704 40.4068 38.5397L43.2068 35.7397C43.4504 35.4961 43.8088 35.4056 44.1373 35.5064C44.4668 35.6053 44.7141 35.8788 44.7813 36.2166L45.7146 40.8833C45.7604 41.111 45.7193 41.3472 45.5998 41.5469L42.7998 46.2136C42.6524 46.46 42.3985 46.6242 42.1138 46.6597C42.0756 46.6634 42.0373 46.6662 42 46.6662ZM41.146 43.5592L41.8142 44.2284L43.8134 40.8964L43.2926 38.2933L41.9253 39.6606L41.146 43.5592Z" fill="#25C685"/>
<path d="M52.2629 25.9299C50.7966 25.9299 49.4844 24.9238 49.1129 23.4519C48.8936 22.5821 48.6192 21.8363 48.299 21.2334C48.0956 20.8507 47.7297 20.6062 47.2938 20.5614C46.8169 20.5138 46.3521 20.7079 46.0432 21.0813C44.1644 23.3521 42.3341 24.4021 40.5981 24.2061C38.4944 23.9653 37.4733 21.9698 37.4304 21.8849C33.1053 13.2338 25.3782 13.9814 25.3017 13.9954C25.2672 13.9991 25.2336 14.001 25.199 14.001C24.6801 14.001 24.1042 14.1261 23.4892 14.3715C21.4265 15.1966 19.1473 14.5778 17.8173 12.8325C16.5144 11.1207 16.5218 8.89568 17.8369 7.16528L17.9452 7.02434C18.6004 6.18248 19.6028 5.64674 20.6929 5.55808C24.2116 5.27248 26.8277 3.57941 28.4694 0.525543C28.6393 0.209143 28.9772 0.0159425 29.3356 0.0355425C42.9604 0.675809 54.0792 10.9611 55.7732 24.4917C55.8338 24.9789 55.5072 25.4306 55.0246 25.523C54.2696 25.6695 53.4837 25.7974 52.6885 25.9029C52.5457 25.9206 52.4029 25.9299 52.2629 25.9299ZM47.1501 18.6873C47.2612 18.6873 47.3722 18.6938 47.4833 18.705C48.5492 18.8133 49.447 19.4162 49.9473 20.357C50.3384 21.0925 50.6669 21.9801 50.9226 22.9946C51.0981 23.689 51.7505 24.1445 52.4412 24.0521C52.8976 23.9914 53.3512 23.9223 53.7964 23.8477C51.8868 11.8403 41.9785 2.76368 29.8172 1.93208C28.3836 4.32514 25.7058 7.02248 20.845 7.41821C20.2748 7.46488 19.7549 7.73928 19.418 8.17234L19.3256 8.29181C18.3605 9.56114 18.6825 10.8846 19.3032 11.7013C19.9322 12.5273 21.224 13.2693 22.7966 12.6383C23.6161 12.3107 24.4085 12.1418 25.1524 12.1343C25.5294 12.0998 27.6509 11.9682 30.2885 12.8866C32.9 13.7957 36.5493 15.9489 39.1001 21.0505C39.1029 21.057 39.7245 22.2358 40.8212 22.3534C41.8749 22.485 43.1797 21.6161 44.6049 19.8922C45.2405 19.1241 46.1729 18.6873 47.1501 18.6873Z" fill="#25C685"/>
<path d="M3.35065 26.1331H1.07705C0.812914 26.1331 0.560914 26.0211 0.384514 25.8251C0.208114 25.6291 0.122247 25.3678 0.149314 25.1046C0.68878 19.8583 2.70478 14.8827 5.98171 10.7144C6.25518 10.3663 6.73585 10.2581 7.13251 10.4569L10.6362 12.2087C12.1006 12.9414 13.1366 14.3433 13.4054 15.9589L13.4773 16.3854C13.8497 18.6235 12.7372 20.8094 10.7081 21.8239L8.88251 22.7367C8.37478 22.9906 7.93985 23.3751 7.62438 23.8474C6.66958 25.2782 5.07265 26.1331 3.35065 26.1331ZM2.13171 24.2664H3.35065C4.44638 24.2664 5.46371 23.7223 6.07131 22.8104C6.56598 22.0675 7.25011 21.4646 8.04811 21.0651L9.87371 20.1523C11.1654 19.5074 11.8738 18.1148 11.6368 16.6906L11.5649 16.2641C11.5649 16.2631 11.5649 16.2631 11.5649 16.2631C11.3932 15.2346 10.7342 14.3432 9.80185 13.8766L6.98878 12.47C4.40811 15.9551 2.74305 20.0002 2.13171 24.2664Z" fill="#25C685"/>
<path d="M11.4165 50.3167C11.2121 50.3167 11.0105 50.2504 10.8434 50.1207C4.72823 45.37 0.81943 38.2431 0.121297 30.5673C0.0839633 30.1641 0.311697 29.7843 0.683163 29.6247L1.66036 29.2056C3.6157 28.3675 5.85103 28.7987 7.35556 30.3032L9.08503 32.0327C9.54796 32.4956 10.1322 32.8083 10.7744 32.9371C13.1842 33.4196 14.9324 35.5523 14.9324 38.0097V38.2683C14.9324 39.6748 14.5208 41.0356 13.7405 42.2041C13.2785 42.8967 12.9864 43.7012 12.894 44.5272L12.3433 49.4869C12.306 49.822 12.0904 50.1123 11.7796 50.2439C11.6629 50.2924 11.5397 50.3167 11.4165 50.3167ZM2.0505 31.0695C2.79716 37.4152 5.89303 43.312 10.6801 47.5596L11.0394 44.32C11.1645 43.1981 11.5612 42.108 12.1874 41.1672C12.7624 40.3057 13.0657 39.3033 13.0657 38.2673V38.0088C13.0657 36.438 11.9485 35.0744 10.4076 34.7664C9.40236 34.5657 8.4877 34.0767 7.76436 33.3515L6.0349 31.622C5.07263 30.6616 3.64463 30.3853 2.3949 30.9201L2.0505 31.0695Z" fill="#25C685"/>
</g>
<defs>
<clipPath id="clip0_3664_8091">
<rect width="56" height="56" fill="white"/>
</clipPath>
</defs>
</svg>
