<svg width="56" height="56" viewBox="0 0 56 56" fill="none" xmlns="http://www.w3.org/2000/svg">
<g clip-path="url(#clip0_3664_8099)">
<path d="M32.8366 25.1075H38.6275C38.8835 25.1075 39.1289 25.0059 39.3099 24.8249C39.4909 24.6439 39.5926 24.3984 39.5926 24.1424C39.5926 23.8864 39.4909 23.6409 39.3099 23.4599C39.1289 23.2789 38.8835 23.1772 38.6275 23.1772H32.8366C32.5806 23.1772 32.3351 23.2789 32.1541 23.4599C31.9731 23.6409 31.8715 23.8864 31.8715 24.1424C31.8715 24.3984 31.9731 24.6439 32.1541 24.8249C32.3351 25.0059 32.5806 25.1075 32.8366 25.1075Z" fill="#25C685"/>
<path d="M19.3244 28.9697H13.5335C13.2775 28.9697 13.032 29.0714 12.851 29.2524C12.67 29.4334 12.5684 29.6789 12.5684 29.9349C12.5684 30.1908 12.67 30.4363 12.851 30.6173C13.032 30.7983 13.2775 30.9 13.5335 30.9H19.3244C19.5804 30.9 19.8258 30.7983 20.0068 30.6173C20.1878 30.4363 20.2895 30.1908 20.2895 29.9349C20.2895 29.6789 20.1878 29.4334 20.0068 29.2524C19.8258 29.0714 19.5804 28.9697 19.3244 28.9697Z" fill="#25C685"/>
<path d="M19.3244 33.7964H13.5335C13.2775 33.7964 13.032 33.8981 12.851 34.0791C12.67 34.2601 12.5684 34.5056 12.5684 34.7615C12.5684 35.0175 12.67 35.263 12.851 35.444C13.032 35.625 13.2775 35.7267 13.5335 35.7267H19.3244C19.5804 35.7267 19.8258 35.625 20.0068 35.444C20.1878 35.263 20.2895 35.0175 20.2895 34.7615C20.2895 34.5056 20.1878 34.2601 20.0068 34.0791C19.8258 33.8981 19.5804 33.7964 19.3244 33.7964Z" fill="#25C685"/>
<path d="M19.3244 38.6235H13.5335C13.2775 38.6235 13.032 38.7252 12.851 38.9062C12.67 39.0872 12.5684 39.3327 12.5684 39.5887C12.5684 39.8447 12.67 40.0901 12.851 40.2711C13.032 40.4521 13.2775 40.5538 13.5335 40.5538H19.3244C19.5804 40.5538 19.8258 40.4521 20.0068 40.2711C20.1878 40.0901 20.2895 39.8447 20.2895 39.5887C20.2895 39.3327 20.1878 39.0872 20.0068 38.9062C19.8258 38.7252 19.5804 38.6235 19.3244 38.6235Z" fill="#25C685"/>
<path d="M32.8366 29.9347H38.6275C38.8835 29.9347 39.1289 29.833 39.3099 29.652C39.4909 29.471 39.5926 29.2255 39.5926 28.9695C39.5926 28.7136 39.4909 28.4681 39.3099 28.2871C39.1289 28.1061 38.8835 28.0044 38.6275 28.0044H32.8366C32.5806 28.0044 32.3351 28.1061 32.1541 28.2871C31.9731 28.4681 31.8715 28.7136 31.8715 28.9695C31.8715 29.2255 31.9731 29.471 32.1541 29.652C32.3351 29.833 32.5806 29.9347 32.8366 29.9347Z" fill="#25C685"/>
<path d="M32.8366 34.7613H38.6275C38.8835 34.7613 39.1289 34.6597 39.3099 34.4787C39.4909 34.2977 39.5926 34.0522 39.5926 33.7962C39.5926 33.5402 39.4909 33.2947 39.3099 33.1137C39.1289 32.9327 38.8835 32.8311 38.6275 32.8311H32.8366C32.5806 32.8311 32.3351 32.9327 32.1541 33.1137C31.9731 33.2947 31.8715 33.5402 31.8715 33.7962C31.8715 34.0522 31.9731 34.2977 32.1541 34.4787C32.3351 34.6597 32.5806 34.7613 32.8366 34.7613Z" fill="#25C685"/>
<path d="M39.5926 38.6229C39.5926 38.3669 39.4909 38.1214 39.3099 37.9404C39.1289 37.7594 38.8835 37.6577 38.6275 37.6577H32.8366C32.5806 37.6577 32.3351 37.7594 32.1541 37.9404C31.9731 38.1214 31.8715 38.3669 31.8715 38.6229C31.8715 38.8788 31.9731 39.1243 32.1541 39.3053C32.3351 39.4863 32.5806 39.588 32.8366 39.588H38.6275C38.8835 39.588 39.1289 39.4863 39.3099 39.3053C39.4909 39.1243 39.5926 38.8788 39.5926 38.6229Z" fill="#25C685"/>
<path d="M2.71318 9.66209H10.8397C11.5532 9.66107 12.2372 9.37724 12.742 8.87277C13.2467 8.3683 13.5309 7.68431 13.5325 6.97063V5.01093C13.5763 3.77502 13.1441 2.56944 12.3252 1.64292C11.5063 0.71639 10.3631 0.139602 9.13139 0.0315501C8.11512 -0.0872191 7.08799 0.131326 6.20804 0.653558C5.32809 1.17579 4.64408 1.97277 4.26127 2.92187C3.75991 2.86953 3.25315 2.9218 2.77302 3.07536C1.96241 3.35176 1.2598 3.87721 0.765486 4.57673C0.27117 5.27625 0.0104087 6.11408 0.0204194 6.97063C0.0219509 7.68431 0.306204 8.3683 0.810918 8.87277C1.31563 9.37724 1.99966 9.66107 2.71318 9.66209ZM3.35017 4.91632C3.52194 4.86233 3.70096 4.83498 3.881 4.83523C4.11648 4.83675 4.34946 4.88362 4.56722 4.97328C4.69861 5.02538 4.83984 5.04798 4.98092 5.03948C5.12201 5.03098 5.2595 4.99159 5.38369 4.92409C5.50788 4.8566 5.61574 4.76264 5.69963 4.64887C5.78352 4.53509 5.84141 4.40428 5.8692 4.26566C5.97207 3.55291 6.35262 2.90979 6.92779 2.47664C7.50296 2.04349 8.22608 1.85546 8.93933 1.9536C9.69371 2.0163 10.3939 2.37077 10.8911 2.94167C11.3884 3.51257 11.6435 4.2549 11.6022 5.01093V6.97063C11.6019 7.17282 11.5215 7.36665 11.3786 7.50962C11.2356 7.65259 11.0418 7.73302 10.8397 7.73328H2.71318C2.51104 7.73302 2.31725 7.65259 2.17431 7.50962C2.03138 7.36665 1.95097 7.17282 1.95071 6.97063C1.93906 6.5249 2.06795 6.0868 2.31913 5.71843C2.57032 5.35006 2.93104 5.07011 3.35017 4.91826V4.91632Z" fill="#25C685"/>
<path d="M51.1744 9.66201C52.1288 9.66201 53.0618 9.37892 53.8554 8.84853C54.649 8.31815 55.2675 7.5643 55.6328 6.68231C55.998 5.80032 56.0936 4.8298 55.9074 3.89348C55.7212 2.95717 55.2616 2.0971 54.5867 1.42206C53.9118 0.747008 53.0519 0.287295 52.1158 0.10105C51.1797 -0.0851956 50.2094 0.0103922 49.3276 0.375725C48.4458 0.741058 47.6922 1.35973 47.1619 2.1535C46.6317 2.94727 46.3486 3.88049 46.3486 4.83516C46.3502 6.11484 46.8591 7.34168 47.7637 8.24656C48.6684 9.15144 49.895 9.66047 51.1744 9.66201ZM51.1744 1.93904C51.747 1.93904 52.3068 2.1089 52.783 2.42713C53.2591 2.74536 53.6302 3.19767 53.8494 3.72686C54.0685 4.25606 54.1259 4.83837 54.0142 5.40016C53.9024 5.96195 53.6267 6.47799 53.2217 6.88302C52.8168 7.28804 52.3009 7.56387 51.7392 7.67562C51.1776 7.78737 50.5954 7.73001 50.0663 7.51081C49.5373 7.29161 49.085 6.92041 48.7669 6.44415C48.4487 5.96789 48.2789 5.40795 48.2789 4.83516C48.2789 4.06706 48.584 3.33042 49.127 2.78729C49.67 2.24417 50.4064 1.93904 51.1744 1.93904Z" fill="#25C685"/>
<path d="M50.2091 12.5586V15.4547C50.2091 15.7108 50.3108 15.9563 50.4918 16.1374C50.6728 16.3184 50.9183 16.4201 51.1743 16.4201C51.4302 16.4201 51.6757 16.3184 51.8567 16.1374C52.0377 15.9563 52.1394 15.7108 52.1394 15.4547V12.5586C52.1394 12.3026 52.0377 12.0571 51.8567 11.876C51.6757 11.695 51.4302 11.5933 51.1743 11.5933C50.9183 11.5933 50.6728 11.695 50.4918 11.876C50.3108 12.0571 50.2091 12.3026 50.2091 12.5586Z" fill="#25C685"/>
<path d="M42.985 13.0272C43.166 13.2082 43.4114 13.3098 43.6673 13.3098C43.9233 13.3098 44.1687 13.2082 44.3497 13.0272L46.3968 10.9802C46.4889 10.8911 46.5625 10.7846 46.6131 10.6669C46.6636 10.5491 46.6903 10.4225 46.6914 10.2943C46.6925 10.1662 46.6681 10.0391 46.6195 9.92048C46.571 9.80187 46.4993 9.69411 46.4087 9.60349C46.3181 9.51287 46.2103 9.4412 46.0917 9.39267C45.9731 9.34414 45.846 9.31972 45.7179 9.32084C45.5897 9.32195 45.4631 9.34858 45.3453 9.39916C45.2276 9.44974 45.1211 9.52327 45.032 9.61545L42.985 11.6625C42.804 11.8435 42.7024 12.089 42.7024 12.3449C42.7024 12.6008 42.804 12.8462 42.985 13.0272Z" fill="#25C685"/>
<path d="M40.5578 5.80041H43.4532C43.7092 5.80041 43.9547 5.69872 44.1357 5.51772C44.3167 5.33672 44.4184 5.09124 44.4184 4.83526C44.4184 4.57929 44.3167 4.3338 44.1357 4.1528C43.9547 3.9718 43.7092 3.87012 43.4532 3.87012H40.5578C40.3018 3.87012 40.0563 3.9718 39.8753 4.1528C39.6943 4.3338 39.5927 4.57929 39.5927 4.83526C39.5927 5.09124 39.6943 5.33672 39.8753 5.51772C40.0563 5.69872 40.3018 5.80041 40.5578 5.80041Z" fill="#25C685"/>
<path d="M53.0543 42.1821C52.9907 41.9896 52.868 41.822 52.7038 41.7031C52.5396 41.5842 52.3421 41.5201 52.1394 41.5198H44.4182V20.2817C44.4157 20.1689 44.3931 20.0574 44.3516 19.9525C44.341 19.9235 44.3294 19.8984 44.3169 19.8714C44.3068 19.8433 44.2949 19.8159 44.2812 19.7893L38.4903 10.1356C38.405 9.9918 38.2839 9.87259 38.1387 9.78967C37.9936 9.70675 37.8294 9.66296 37.6622 9.6626C35.1481 9.6626 37.2174 9.6626 33.8016 9.6626C33.6351 9.66263 33.4714 9.70576 33.3264 9.78781C33.1815 9.86985 33.0603 9.98801 32.9745 10.1308L27.1836 19.7845C27.1699 19.811 27.158 19.8385 27.1479 19.8666C27.1354 19.8936 27.1238 19.9187 27.1132 19.9477C27.0707 20.054 27.0478 20.1672 27.0456 20.2817V43.1436L26.8651 42.8916C26.7761 42.7663 26.6585 42.664 26.522 42.5933C26.3855 42.5226 26.2341 42.4855 26.0805 42.4852H25.1153V26.0739C25.1153 25.8179 25.0136 25.5723 24.8326 25.3913C24.6516 25.2102 24.4061 25.1085 24.1502 25.1085H23.185V22.2124C23.185 21.9564 23.0833 21.7108 22.9023 21.5298C22.7213 21.3487 22.4758 21.247 22.2199 21.247H21.2547V18.3509C21.2547 18.0949 21.153 17.8494 20.972 17.6683C20.791 17.4873 20.5455 17.3856 20.2896 17.3856C14.1352 17.3856 17.9129 17.3856 12.5684 17.3856C12.3124 17.3856 12.0669 17.4873 11.8859 17.6683C11.7049 17.8494 11.6033 18.0949 11.6033 18.3509V21.247H10.6381C10.3821 21.247 10.1367 21.3487 9.95566 21.5298C9.77466 21.7108 9.67297 21.9564 9.67297 22.2124V25.1085H8.70783C8.45185 25.1085 8.20637 25.2102 8.02537 25.3913C7.84437 25.5723 7.74268 25.8179 7.74268 26.0739V42.4852H5.81239C5.66475 42.4868 5.51947 42.5224 5.38788 42.5894C5.25629 42.6564 5.14195 42.7529 5.05379 42.8713C5.04606 42.881 5.03448 42.8839 5.02773 42.8935L2.13229 46.9481L0.201998 49.6511C0.122498 49.7538 0.0645377 49.8715 0.031587 49.9972C-0.00136373 50.1228 -0.00862699 50.2538 0.010232 50.3823C0.029091 50.5108 0.0736843 50.6342 0.141342 50.7451C0.209 50.856 0.29833 50.952 0.403984 51.0275C0.509637 51.1031 0.629441 51.1565 0.756222 51.1846C0.883003 51.2127 1.01415 51.215 1.14182 51.1912C1.26948 51.1674 1.39104 51.1181 1.49921 51.0462C1.60737 50.9744 1.69993 50.8814 1.77132 50.7729L1.95181 50.519V55.035C1.95181 55.291 2.05349 55.5366 2.23449 55.7176C2.41549 55.8987 2.66098 56.0004 2.91695 56.0004H53.1045C53.3605 56.0004 53.606 55.8987 53.787 55.7176C53.968 55.5366 54.0697 55.291 54.0697 55.035C54.0697 54.779 53.968 54.5334 53.787 54.3524C53.606 54.1713 53.3605 54.0696 53.1045 54.0696H48.2788V52.1389H55.0348C55.1877 52.1388 55.3383 52.1024 55.4743 52.0326C55.6103 51.9629 55.7279 51.8618 55.8172 51.7378C55.9065 51.6137 55.9652 51.4702 55.9882 51.3191C56.0112 51.168 55.9981 51.0135 55.9498 50.8685L53.0543 42.1821ZM52.0892 45.3832H48.607L48.3917 43.4525H51.4435L52.0892 45.3832ZM47.2027 50.2101H43.566L43.8884 47.314H46.8803L47.2027 50.2101ZM42.1598 45.3813H38.6795L39.3232 43.4506H42.375L42.1598 45.3813ZM38.0367 47.312H41.9455L41.6241 50.2081H37.0715L38.0367 47.312ZM44.1026 45.3813L44.3169 43.4506H46.4499L46.6641 45.3813H44.1026ZM34.3479 11.5933H37.1159L41.7486 19.3163H29.7162L34.3479 11.5933ZM13.5336 19.3163H19.3244V21.247H13.5336V19.3163ZM11.6033 23.1778H21.2547V25.1085H11.6033V23.1778ZM9.67297 27.0393H23.185V42.4852H9.67297V27.0393ZM8.70783 44.4159H25.5834L26.2735 45.3813H23.185C22.929 45.3813 22.6836 45.483 22.5026 45.664C22.3216 45.8451 22.2199 46.0906 22.2199 46.3467C22.2199 46.6027 22.3216 46.8482 22.5026 47.0293C22.6836 47.2103 22.929 47.312 23.185 47.312H27.6517L29.0309 49.2428H11.1352L10.4451 48.2774H14.4987C14.7547 48.2774 15.0002 48.1757 15.1812 47.9947C15.3622 47.8136 15.4638 47.5681 15.4638 47.312C15.4638 47.056 15.3622 46.8105 15.1812 46.6294C15.0002 46.4484 14.7547 46.3467 14.4987 46.3467H9.06686L7.68767 44.4159H8.70783ZM3.8821 47.814L5.81239 45.111L7.74268 47.814V54.0696H3.8821V47.814ZM9.67297 50.5171L9.85345 50.769C9.94265 50.894 10.0604 50.9959 10.1968 51.0663C10.3333 51.1366 10.4846 51.1734 10.6381 51.1735H27.0456V54.0696H9.67297V50.5171ZM28.9759 54.0696V51.1735H30.9062C31.0609 51.1734 31.2133 51.1362 31.3505 51.0649C31.4878 50.9936 31.6059 50.8903 31.695 50.7638C31.784 50.6373 31.8413 50.4912 31.8621 50.3379C31.8829 50.1846 31.8665 50.0285 31.8144 49.8828C31.7849 49.7987 31.7432 49.7194 31.6908 49.6473L28.9759 45.8456V21.247H42.4879V41.5198H38.6273C38.4249 41.52 38.2276 41.5838 38.0634 41.7023C37.8992 41.8208 37.7764 41.988 37.7124 42.1801L34.817 50.8685C34.7687 51.0135 34.7555 51.168 34.7785 51.3191C34.8016 51.4702 34.8602 51.6137 34.9495 51.7378C35.0389 51.8618 35.1564 51.9629 35.2924 52.0326C35.4284 52.1024 35.5791 52.1388 35.7319 52.1389H42.4879V54.0696H28.9759ZM44.4182 54.0696V52.1389H46.3485V54.0696H44.4182ZM49.1474 50.2081L48.826 47.312H52.7349L53.7 50.2081H49.1474Z" fill="#25C685"/>
</g>
<defs>
<clipPath id="clip0_3664_8099">
<rect width="56" height="56.0001" fill="white"/>
</clipPath>
</defs>
</svg>
