<svg width="56" height="45" viewBox="0 0 56 45" fill="none" xmlns="http://www.w3.org/2000/svg">
<path d="M55.104 31.136C55.0667 31.1236 54.5129 30.968 53.5111 30.744V20.5333H54.7556C54.8364 20.5333 54.9173 20.5271 54.9982 20.5084C55.0356 20.5022 55.0729 20.4898 55.104 20.4773C55.1476 20.4649 55.1849 20.4524 55.2284 20.44C55.272 20.4213 55.3093 20.3964 55.3529 20.3778C55.384 20.3591 55.4151 20.3467 55.4462 20.328C55.5831 20.2347 55.7013 20.1164 55.7884 19.9858C55.8071 19.9547 55.8196 19.9236 55.8382 19.8924C55.8569 19.8551 55.8818 19.8178 55.9004 19.7742C55.9191 19.7307 55.9253 19.6933 55.9378 19.6498C55.9502 19.6124 55.9627 19.5813 55.9689 19.544C56 19.3822 56 19.2204 55.9689 19.0587C55.9627 19.0213 55.9502 18.9902 55.9378 18.9529C55.9253 18.9093 55.9129 18.8658 55.9004 18.8284C55.8818 18.7849 55.8569 18.7476 55.8382 18.7102C55.8196 18.6791 55.8071 18.648 55.7884 18.6169C55.7449 18.5484 55.6889 18.4862 55.6329 18.424L45.6773 8.46844C45.6213 8.41244 45.5529 8.35644 45.4844 8.31289C45.4533 8.29422 45.4222 8.28178 45.3911 8.26311C45.3538 8.23822 45.3102 8.21955 45.2667 8.20089C45.2231 8.18222 45.1858 8.176 45.1422 8.16356C45.1049 8.15111 45.0738 8.13867 45.0364 8.13244C44.9618 8.09511 44.8809 8.08889 44.8 8.08889H29.8667C29.7858 8.08889 29.7049 8.09511 29.624 8.11378C29.5867 8.12 29.5493 8.13244 29.5182 8.14489C29.4747 8.15733 29.4373 8.16978 29.3938 8.18222C29.3502 8.20089 29.3129 8.22578 29.2693 8.24444C29.2382 8.26311 29.2071 8.27555 29.176 8.29422C29.1076 8.33778 29.0453 8.39378 28.9831 8.44978L19.0276 18.4053C18.9716 18.4613 18.9156 18.5298 18.872 18.5982C18.8533 18.6293 18.8409 18.6604 18.8222 18.6916C18.8036 18.7289 18.7787 18.7662 18.76 18.8098C18.7413 18.8533 18.7351 18.8907 18.7227 18.9342C18.7102 18.9716 18.6978 19.0027 18.6916 19.04C18.6604 19.2018 18.6604 19.3636 18.6916 19.5253C18.6978 19.5627 18.7102 19.5938 18.7227 19.6311C18.7351 19.6747 18.7476 19.7182 18.76 19.7556C18.7787 19.7991 18.8036 19.8364 18.8222 19.8738C18.8409 19.9049 18.8533 19.936 18.872 19.9671C18.9653 20.104 19.0773 20.2222 19.2142 20.3093C19.2453 20.328 19.2764 20.3467 19.3076 20.3591C19.3449 20.3778 19.3822 20.4027 19.4258 20.4213C19.4693 20.44 19.5067 20.4462 19.5502 20.4587C19.5876 20.4711 19.6187 20.4836 19.656 20.4898C19.7493 20.5271 19.8302 20.5333 19.9111 20.5333H21.1556V30.4391C17.5591 31.0924 13.8071 32.0196 9.95556 33.2951V17.3227C14.168 16.7129 17.4222 13.0916 17.4222 8.71111C17.4222 3.90756 13.5147 0 8.71111 0C3.90756 0 0 3.90756 0 8.71111C0 13.0916 3.25422 16.7129 7.46667 17.3227V23.0222L4.48 20.7822C3.93244 20.3716 3.14844 20.4836 2.73778 21.0311C2.32711 21.5787 2.43911 22.3627 2.98667 22.7733L7.46667 26.1333V34.16C5.23911 34.9751 2.98044 35.9147 0.715556 36.9849C0.28 37.1902 0 37.6258 0 38.1111V43.5556C0 44.24 0.56 44.8 1.24444 44.8H54.7556C55.44 44.8 56 44.24 56 43.5556V32.3307C56 31.7769 55.6329 31.2916 55.104 31.136ZM2.48889 8.71111C2.48889 5.28267 5.28267 2.48889 8.71111 2.48889C12.1396 2.48889 14.9333 5.28267 14.9333 8.71111C14.9333 11.7164 12.7929 14.2302 9.95556 14.8089V10.5778C9.95556 9.89333 9.39556 9.33333 8.71111 9.33333C8.02667 9.33333 7.46667 9.89333 7.46667 10.5778V14.8089C4.62933 14.2302 2.48889 11.7164 2.48889 8.71111ZM51.0222 30.2524C48.6018 29.8231 45.1982 29.3564 41.0667 29.1511V20.5333H51.0222V30.2524ZM22.9164 18.0444L29.8667 11.0942L36.8169 18.0444H22.9164ZM44.2836 10.5778L51.7502 18.0444H40.3387L32.872 10.5778H44.2836ZM23.6444 20.5333H38.5778V29.0578C36.6302 29.0142 34.5458 29.0391 32.3556 29.1449V24.2667C32.3556 23.5822 31.7956 23.0222 31.1111 23.0222C30.4267 23.0222 29.8667 23.5822 29.8667 24.2667V29.3067C27.8693 29.4622 25.7911 29.6987 23.6444 30.0222V20.5333ZM53.5111 42.3111H2.48889V38.9013C26.544 27.832 48.832 32.1876 53.5111 33.2951V42.3111ZM44.8 24.2667C44.8 24.1858 44.8062 24.1049 44.8249 24.024C44.8373 23.9431 44.8622 23.8622 44.8933 23.7876C44.9244 23.7129 44.968 23.6444 45.0116 23.576C45.0551 23.5076 45.1049 23.4453 45.1671 23.3893C45.6276 22.9227 46.4613 22.9227 46.9218 23.3893C46.984 23.4453 47.0338 23.5076 47.0773 23.576C47.1209 23.6444 47.1644 23.7129 47.1956 23.7876C47.2267 23.8622 47.2516 23.9431 47.264 24.024C47.2827 24.1049 47.2889 24.1858 47.2889 24.2667C47.2889 24.5964 47.1582 24.9138 46.9218 25.144C46.6916 25.3804 46.3742 25.5111 46.0444 25.5111C45.8764 25.5111 45.7209 25.48 45.5653 25.4178C45.416 25.3556 45.2791 25.2622 45.1671 25.144C44.9307 24.9138 44.8 24.5964 44.8 24.2667Z" fill="#25C685"/>
</svg>
