<svg width="16" height="16" viewBox="0 0 16 16" fill="none" xmlns="http://www.w3.org/2000/svg">
<path d="M8.00002 1.99999C8.08802 1.99999 8.17535 1.99999 8.26202 1.99999C7.40558 2.7958 6.85508 3.86656 6.70621 5.02614C6.55734 6.18572 6.81952 7.36081 7.44717 8.34715C8.07483 9.33348 9.02826 10.0687 10.1418 10.425C11.2552 10.7813 12.4584 10.7361 13.542 10.2973C13.1252 11.3003 12.4439 12.1713 11.5708 12.8175C10.6977 13.4637 9.66565 13.8607 8.58462 13.9663C7.5036 14.0718 6.41419 13.882 5.43261 13.4169C4.45103 12.9519 3.61409 12.2291 3.01108 11.3257C2.40806 10.4223 2.06158 9.37218 2.00861 8.28731C1.95563 7.20243 2.19814 6.12352 2.71026 5.16567C3.22239 4.20781 3.98492 3.40694 4.91653 2.84848C5.84813 2.29002 6.91385 1.99492 8.00002 1.99466V1.99999Z" stroke="#F3F3F4" stroke-width="1.5" stroke-linecap="round" stroke-linejoin="round"/>
<path d="M11.3333 2.66666C11.3333 3.02028 11.4738 3.35942 11.7239 3.60947C11.9739 3.85951 12.313 3.99999 12.6667 3.99999C12.313 3.99999 11.9739 4.14047 11.7239 4.39051C11.4738 4.64056 11.3333 4.9797 11.3333 5.33332C11.3333 4.9797 11.1929 4.64056 10.9428 4.39051C10.6928 4.14047 10.3536 3.99999 10 3.99999C10.3536 3.99999 10.6928 3.85951 10.9428 3.60947C11.1929 3.35942 11.3333 3.02028 11.3333 2.66666Z" stroke="#F3F3F4" stroke-width="1.5" stroke-linecap="round" stroke-linejoin="round"/>
<path d="M12.6667 7.33332H14.0001M13.3334 6.66666V7.99999" stroke="#F3F3F4" stroke-width="1.5" stroke-linecap="round" stroke-linejoin="round"/>
</svg>
