<svg width="17" height="16" viewBox="0 0 17 16" fill="none" xmlns="http://www.w3.org/2000/svg">
<path d="M14.5 6.66663C14.5 11.3333 8.5 15.3333 8.5 15.3333C8.5 15.3333 2.5 11.3333 2.5 6.66663C2.5 5.07533 3.13214 3.5492 4.25736 2.42399C5.38258 1.29877 6.9087 0.666626 8.5 0.666626C10.0913 0.666626 11.6174 1.29877 12.7426 2.42399C13.8679 3.5492 14.5 5.07533 14.5 6.66663Z" stroke="white" stroke-width="1.2" stroke-linecap="round" stroke-linejoin="round"/>
<path d="M8.5 8.66663C9.60457 8.66663 10.5 7.77119 10.5 6.66663C10.5 5.56206 9.60457 4.66663 8.5 4.66663C7.39543 4.66663 6.5 5.56206 6.5 6.66663C6.5 7.77119 7.39543 8.66663 8.5 8.66663Z" stroke="white" stroke-width="1.2" stroke-linecap="round" stroke-linejoin="round"/>
</svg>
