<svg width="24" height="24" viewBox="0 0 24 24" fill="none" xmlns="http://www.w3.org/2000/svg">
<path d="M21.8557 21.0062C22.0157 22.0991 21.1008 23 19.9962 23C12.0751 23 10.9248 23 3.00381 23C1.89924 23 0.984344 22.0991 1.14427 21.0062C1.97516 15.3277 6.29536 11 11.5 11C16.7046 11 21.0248 15.3277 21.8557 21.0062Z" fill="black"/>
<path d="M18.8787 1.12132C18.3161 1.68393 18 2.44699 18 3.24264V12.27C19.7453 13.6258 21.1338 15.5082 22 17.6929V3.24264C22 2.44699 21.6839 1.68393 21.1213 1.12132L20 0L18.8787 1.12132Z" fill="black"/>
<path d="M19.9981 23C21.1018 22.999 22.0156 22.0985 21.8557 21.0062C21.4167 18.0056 20.0033 15.3822 18 13.5751V21C18 22.1039 18.8944 22.999 19.9981 23Z" fill="black"/>
<path d="M14.1064 9.6204C12.6358 9.35439 11.5204 8.06764 11.5204 6.52037C11.5204 5.51942 11.9871 4.62751 12.7149 4.05042C12.5318 4.0173 12.3431 4 12.1505 4C10.4105 4 9 5.41051 9 7.15046C9 8.89041 10.4105 10.3009 12.1505 10.3009C12.8895 10.3009 13.569 10.0465 14.1064 9.6204Z" fill="black"/>
<path fill-rule="evenodd" clip-rule="evenodd" d="M11 13V10H12V13H11Z" fill="black"/>
<path d="M16.1834 6.82009C15.912 6.49443 16.1436 6 16.5675 6H23.4325C23.8564 6 24.088 6.49443 23.8166 6.82009L22 9H18L16.1834 6.82009Z" fill="black"/>
</svg>
