<svg width="16" height="16" viewBox="0 0 16 16" fill="none" xmlns="http://www.w3.org/2000/svg">
<g clip-path="url(#clip0_4888_4853)">
<path d="M9.88544 9.88531C10.1401 9.63931 10.3433 9.34506 10.483 9.01972C10.6228 8.69437 10.6964 8.34445 10.6994 7.99038C10.7025 7.6363 10.635 7.28515 10.501 6.95743C10.3669 6.6297 10.1689 6.33197 9.9185 6.08159C9.66812 5.83121 9.37038 5.6332 9.04265 5.49911C8.71493 5.36503 8.36378 5.29756 8.00971 5.30064C7.65563 5.30371 7.30571 5.37728 6.98036 5.51704C6.65502 5.65679 6.36077 5.85995 6.11478 6.11464C5.62902 6.61758 5.36024 7.29118 5.36631 7.99038C5.37239 8.68957 5.65284 9.3584 6.14726 9.85282C6.64168 10.3472 7.31051 10.6277 8.00971 10.6338C8.7089 10.6398 9.3825 10.3711 9.88544 9.88531Z" stroke="#F3F3F4" stroke-width="1.5" stroke-linecap="round" stroke-linejoin="round"/>
<path d="M4.22856 11.7714L3.28589 12.714" stroke="#F3F3F4" stroke-width="1.5" stroke-linecap="round" stroke-linejoin="round"/>
<path d="M4.22856 4.22868L3.28589 3.28601" stroke="#F3F3F4" stroke-width="1.5" stroke-linecap="round" stroke-linejoin="round"/>
<path d="M11.7712 4.22868L12.7139 3.28601" stroke="#F3F3F4" stroke-width="1.5" stroke-linecap="round" stroke-linejoin="round"/>
<path d="M11.7712 11.7714L12.7139 12.714" stroke="#F3F3F4" stroke-width="1.5" stroke-linecap="round" stroke-linejoin="round"/>
<path d="M2.66659 8H1.33325" stroke="#F3F3F4" stroke-width="1.5" stroke-linecap="round" stroke-linejoin="round"/>
<path d="M8 2.66665V1.33331" stroke="#F3F3F4" stroke-width="1.5" stroke-linecap="round" stroke-linejoin="round"/>
<path d="M13.3333 8H14.6666" stroke="#F3F3F4" stroke-width="1.5" stroke-linecap="round" stroke-linejoin="round"/>
<path d="M8 13.3333V14.6666" stroke="#F3F3F4" stroke-width="1.5" stroke-linecap="round" stroke-linejoin="round"/>
</g>
<defs>
<clipPath id="clip0_4888_4853">
<rect width="16" height="16" fill="white"/>
</clipPath>
</defs>
</svg>
