<svg width="120" height="120" viewBox="0 0 120 120" fill="none" xmlns="http://www.w3.org/2000/svg">
<path d="M60 70C68.2843 70 75 63.2843 75 55C75 46.7157 68.2843 40 60 40C51.7157 40 45 46.7157 45 55C45 63.2843 51.7157 70 60 70Z" stroke="#25C685" stroke-width="6" stroke-linecap="round" stroke-linejoin="round"/>
<path d="M88.285 83.285L67.07 104.5C65.1949 106.373 62.6529 107.425 60.0025 107.425C57.3521 107.425 54.8101 106.373 52.935 104.5L31.715 83.285C26.1211 77.6908 22.3117 70.5635 20.7685 62.8043C19.2252 55.0451 20.0175 47.0026 23.045 39.6937C26.0726 32.3847 31.1995 26.1377 37.7774 21.7425C44.3553 17.3474 52.0889 15.0015 60 15.0015C67.9112 15.0015 75.6447 17.3474 82.2226 21.7425C88.8005 26.1377 93.9274 32.3847 96.955 39.6937C99.9826 47.0026 100.775 55.0451 99.2316 62.8043C97.6883 70.5635 93.8789 77.6908 88.285 83.285V83.285Z" stroke="#25C685" stroke-width="6" stroke-linecap="round" stroke-linejoin="round"/>
</svg>
